<svg width="14" height="15" viewBox="0 0 14 15" fill="none" xmlns="http://www.w3.org/2000/svg">
<path d="M8.39984 14.4992H1.40065C1.02555 14.5122 0.661872 14.3689 0.396474 14.1035C0.131075 13.8381 -0.0122173 13.4744 0.000817669 13.0993V6.10016C-0.0122173 5.72506 0.131075 5.36138 0.396474 5.09598C0.661872 4.83058 1.02555 4.68729 1.40065 4.70033H4.20033V1.90065C4.18729 1.52555 4.33058 1.16187 4.59598 0.896474C4.86138 0.631075 5.22506 0.487783 5.60016 0.500818H12.5993C12.9744 0.487783 13.3381 0.631075 13.6035 0.896474C13.8689 1.16187 14.0122 1.52555 13.9992 1.90065V8.89984C14.012 9.27488 13.8686 9.63844 13.6033 9.90379C13.3379 10.1691 12.9744 10.3125 12.5993 10.2997H9.79967V13.0993C9.8125 13.4744 9.66914 13.8379 9.40379 14.1033C9.13844 14.3686 8.77488 14.512 8.39984 14.4992ZM1.40065 6.10016V13.0993H8.39984V10.2997H5.60016C5.22512 10.3125 4.86156 10.1691 4.59621 9.90379C4.33086 9.63844 4.1875 9.27488 4.20033 8.89984V6.10016H1.40065ZM5.60016 1.90065V8.89984H12.5993V1.90065H5.60016Z" fill="#75A0E1"/>
</svg>
