<svg width="29" height="32" viewBox="0 0 29 32" fill="none" xmlns="http://www.w3.org/2000/svg">
<path d="M11.184 13.4238C10.272 13.4238 9.552 14.2238 9.552 15.1998C9.552 16.1758 10.288 16.9758 11.184 16.9758C12.096 16.9758 12.816 16.1758 12.816 15.1998C12.832 14.2238 12.096 13.4238 11.184 13.4238ZM17.024 13.4238C16.112 13.4238 15.392 14.2238 15.392 15.1998C15.392 16.1758 16.128 16.9758 17.024 16.9758C17.936 16.9758 18.656 16.1758 18.656 15.1998C18.656 14.2238 17.936 13.4238 17.024 13.4238Z" fill="#0D123A"/>
<path d="M24.8001 0H3.36008C1.55208 0 0.0800781 1.472 0.0800781 3.296V24.928C0.0800781 26.752 1.55208 28.224 3.36008 28.224H21.5041L20.6561 25.264L22.7041 27.168L24.6401 28.96L28.0801 32V3.296C28.0801 1.472 26.6081 0 24.8001 0ZM18.6241 20.896C18.6241 20.896 18.0481 20.208 17.5681 19.6C19.6641 19.008 20.4641 17.696 20.4641 17.696C19.8081 18.128 19.1841 18.432 18.6241 18.64C17.8241 18.976 17.0561 19.2 16.3041 19.328C14.7681 19.616 13.3601 19.536 12.1601 19.312C11.2481 19.136 10.4641 18.88 9.80808 18.624C9.44008 18.48 9.04008 18.304 8.64008 18.08C8.59208 18.048 8.54408 18.032 8.49608 18C8.46408 17.984 8.44808 17.968 8.43208 17.952C8.14408 17.792 7.98408 17.68 7.98408 17.68C7.98408 17.68 8.75208 18.96 10.7841 19.568C10.3041 20.176 9.71208 20.896 9.71208 20.896C6.17608 20.784 4.83208 18.464 4.83208 18.464C4.83208 13.312 7.13608 9.136 7.13608 9.136C9.44008 7.408 11.6321 7.456 11.6321 7.456L11.7921 7.648C8.91208 8.48 7.58408 9.744 7.58408 9.744C7.58408 9.744 7.93608 9.552 8.52808 9.28C10.2401 8.528 11.6001 8.32 12.1601 8.272C12.2561 8.256 12.3361 8.24 12.4321 8.24C13.4081 8.112 14.5121 8.08 15.6641 8.208C17.1841 8.384 18.8161 8.832 20.4801 9.744C20.4801 9.744 19.2161 8.544 16.4961 7.712L16.7201 7.456C16.7201 7.456 18.9121 7.408 21.2161 9.136C21.2161 9.136 23.5201 13.312 23.5201 18.464C23.5201 18.464 22.1601 20.784 18.6241 20.896Z" fill="#0D123A"/>
</svg>
